<?xml version="1.0" encoding="UTF-8"?>
<svg id="Layer_2" data-name="Layer 2" xmlns="http://www.w3.org/2000/svg" viewBox="0 0 90.79 117.81">
  <g id="Layer_1-2" data-name="Layer 1">
    <path d="m85.7,47.3l-40.27,17.78-25.39-11.21h0s0,0,0,0l-14.94-6.6c-.07-.98-.09-1.93-.09-2.97C5.02,22.58,23.13,4.9,45.4,4.9s40.38,17.68,40.38,39.41c0,1.07-.02,2.04-.08,3m-17.23,20.01h-15.93l15.93-7.03v7.03Zm-46.15-7.07l16,7.07h-16v-7.07ZM45.4,0C20.36,0,0,19.88,0,44.31c0,1.62.04,3.05.22,4.7.02.6.27,1.19.73,1.64h0c.25.25.54.44.86.56l15.48,6.83v11.73c0,1.35,1.12,2.45,2.51,2.45h51.17c1.39,0,2.51-1.1,2.51-2.45v-11.7l15.62-6.9c.87-.38,1.42-1.21,1.47-2.11.18-1.6.21-3.07.21-4.76C90.79,19.88,70.43,0,45.4,0" style="fill: #1d1d1b;"/>
    <g>
      <path d="m7.29,103.52c0,2.98,2.32,4.15,4.96,4.15,1.73,0,4.37-.5,4.37-2.79,0-2.42-3.36-2.83-6.66-3.71-3.33-.88-6.69-2.17-6.69-6.38,0-4.58,4.33-6.78,8.38-6.78,4.68,0,8.98,2.04,8.98,7.22h-4.77c-.16-2.7-2.07-3.39-4.43-3.39-1.57,0-3.39.66-3.39,2.54,0,1.73,1.07,1.95,6.69,3.39,1.63.41,6.66,1.44,6.66,6.53,0,4.11-3.23,7.19-9.33,7.19-4.96,0-9.61-2.45-9.55-7.98h4.77Z" style="fill: #1d1d1b;"/>
      <path d="m27.67,103.52c0,2.98,2.32,4.15,4.96,4.15,1.73,0,4.37-.5,4.37-2.79,0-2.42-3.36-2.83-6.66-3.71-3.33-.88-6.69-2.17-6.69-6.38,0-4.58,4.33-6.78,8.38-6.78,4.68,0,8.98,2.04,8.98,7.22h-4.77c-.16-2.7-2.07-3.39-4.43-3.39-1.57,0-3.39.66-3.39,2.54,0,1.73,1.07,1.95,6.69,3.39,1.63.41,6.66,1.44,6.66,6.53,0,4.11-3.23,7.19-9.33,7.19-4.96,0-9.61-2.45-9.55-7.98h4.77Z" style="fill: #1d1d1b;"/>
      <path d="m44.69,88.55h4.93v22.42h-4.93v-22.42Z" style="fill: #1d1d1b;"/>
      <path d="m53.95,88.55h15.76v4.15h-10.83v5.18h9.39v3.83h-9.39v9.26h-4.93v-22.42Z" style="fill: #1d1d1b;"/>
      <path d="m72.57,88.55h15.76v4.15h-10.83v5.18h9.39v3.83h-9.39v9.26h-4.93v-22.42Z" style="fill: #1d1d1b;"/>
    </g>
  </g>
</svg>