<svg version="1.2" xmlns="http://www.w3.org/2000/svg" viewBox="0 0 427 98" width="427" height="98">
	<title>logo_oficial_generico_17_eps_es-ai</title>
	<style>
		.s0 { fill: #231f20 } 
	</style>
	<g id="Capa 1">
		<g id="&lt;Group&gt;">
			<path id="&lt;Compound Path&gt;" class="s0" d="m368.1 83.1h15.5v-29.2h29.6v-12h-29.6v-16.4h34.1v-13h-49.6zm-58.7 0h15.5v-29.2h29.6v-12.1h-29.6v-16.3h34.2v-13h-49.7zm-29.2 0h15.6v-70.7h-15.6zm-68.6-23.4c-0.2 17.4 14.4 25.1 30 25.1 19.2 0 29.4-9.7 29.4-22.6 0-16.1-15.8-19.3-20.9-20.6-17.8-4.6-21.1-5.3-21.1-10.7 0-5.9 5.7-8 10.7-8 7.4 0 13.4 2.2 13.9 10.7h15.1c0-16.3-13.6-22.8-28.3-22.8-12.8 0-26.4 6.9-26.4 21.4 0 13.2 10.5 17.3 21 20.1 10.4 2.7 21 4 21 11.6 0 7.3-8.3 8.8-13.8 8.8-8.3 0-15.6-3.6-15.6-13zm-64.2 0c-0.2 17.4 14.5 25.1 30.1 25.1 19.2 0 29.4-9.7 29.4-22.6 0-16.1-15.9-19.3-21-20.6-17.7-4.6-21.1-5.3-21.1-10.7 0-5.9 5.8-8 10.7-8 7.4 0 13.5 2.2 14 10.7h15c0-16.3-13.6-22.8-28.3-22.8-12.8 0-26.4 6.9-26.4 21.4 0 13.2 10.6 17.3 21.1 20.1 10.3 2.7 20.9 4 20.9 11.6 0 7.3-8.3 8.8-13.7 8.8-8.3 0-15.6-3.6-15.6-13z"/>
			<path id="&lt;Compound Path&gt;" fill-rule="evenodd" class="s0" d="m721.1 67.1h3.3v16.7h-3.3zm-13.6 8.4c0.1-3.2 2.9-4.1 5.6-4.1 2.5 0 5.4 0.5 5.4 3.5v6.2c0 1.1 0.1 2.2 0.4 2.7h-3.4q-0.2-0.5-0.2-1.1c-1.1 1.1-2.6 1.5-4.1 1.5-2.3 0-4.1-1.2-4.1-3.7 0-2.7 2-3.4 4.1-3.6 2-0.3 3.9-0.3 3.9-1.6 0-1.5-0.9-1.7-2.1-1.7-1.3 0-2.1 0.5-2.2 1.9zm7.7 2.4c-0.6 0.5-1.8 0.5-2.8 0.7-1 0.2-2 0.6-2 1.8 0 1.2 1 1.5 2.1 1.5 2.6 0 2.7-2 2.7-2.7zm-13.1 5.9h-3.7l-4.1-12.1h3.5l2.5 8.2h0.1l2.5-8.2h3.3zm-9.3-14h-3.3v-2.7h3.3zm-3.3 1.9h3.3v12h-3.3zm-4.1 0h2.4v2.3h-2.4v6c0 1.1 0.3 1.4 1.4 1.4q0.5 0 1-0.1v2.6c-0.5 0.1-1.3 0.1-1.9 0.1-2.1 0-3.8-0.5-3.8-2.9v-7.1h-2v-2.3h2v-3.6h3.3zm-14.2 8.2c0 1.4 1.2 2 2.5 2 1 0 2.2-0.3 2.2-1.5 0-1-1.4-1.4-3.8-1.9-1.9-0.4-3.8-1.1-3.8-3.2 0-3.1 2.7-3.9 5.3-3.9 2.6 0 5 0.9 5.3 3.9h-3.2c-0.1-1.3-1-1.7-2.2-1.7-0.8 0-1.9 0.2-1.9 1.1 0 1.2 1.9 1.4 3.8 1.8 1.9 0.5 3.8 1.2 3.8 3.4 0 3.2-2.7 4.2-5.5 4.2-2.8 0-5.5-1-5.7-4.2zm-13.2-1.3c0 2.1 1.1 3 2.9 3 1.4 0 2.4-0.8 2.6-1.5h3c-1 2.8-3 4-5.7 4-3.8 0-6.2-2.6-6.2-6.3 0-3.7 2.5-6.4 6.2-6.4 4.1 0 6.1 3.5 5.9 7.2zm5.4-2.1c-0.3-1.7-1-2.6-2.7-2.6-2.1 0-2.7 1.6-2.7 2.6zm-21.7-9.4h11.8v3.1h-8.1v3.9h7v2.8h-7v6.9h-3.7zm-27.7 4.6h3.1v1.7h0.1c0.8-1.3 2.1-2 3.7-2 1.5 0 2.8 0.6 3.5 2 0.7-1 2-2 3.7-2 2.5 0 4.4 1.2 4.4 4.3v8.1h-3.3v-6.8c0-1.7-0.2-3-2.1-3-1.9 0-2.2 1.6-2.2 3.1v6.7h-3.3v-6.8c0-1.4 0.1-3-2-3-0.7 0-2.3 0.4-2.3 2.8v7h-3.3zm-6-4.6h3.3v16.7h-3.3zm-2.8 2.7h-3.3v-2.7h3.3zm-3.3 1.9h3.3v12.1h-3.3zm-13.6-4.6h11.7v3.1h-8v3.8h7v2.9h-7v6.9h-3.7zm-12.6 0h3.4v16.7h-3.4zm-13.6 8.3c0.2-3.1 2.9-4 5.7-4 2.4 0 5.3 0.5 5.3 3.4v6.3c0 1.1 0.1 2.2 0.4 2.7h-3.4q-0.2-0.6-0.2-1.2c-1.1 1.1-2.6 1.5-4.1 1.5-2.3 0-4.1-1.1-4.1-3.6 0-2.8 2.1-3.4 4.1-3.7 2.1-0.3 3.9-0.2 3.9-1.6 0-1.4-0.9-1.6-2.1-1.6-1.3 0-2.1 0.5-2.2 1.8zm7.7 2.5c-0.6 0.5-1.8 0.5-2.8 0.7-1 0.2-2 0.5-2 1.7 0 1.3 1 1.6 2.1 1.6 2.6 0 2.7-2.1 2.7-2.8zm-21.4-6.2h3.1v1.7h0.1c0.8-1.3 2.3-2 3.7-2 3.5 0 4.4 2 4.4 5v7.4h-3.3v-6.8c0-2-0.6-3-2.1-3-1.9 0-2.6 1-2.6 3.5v6.3h-3.3zm-8.5-0.3c3.8 0 6.3 2.5 6.3 6.4 0 3.8-2.5 6.3-6.3 6.3-3.8 0-6.2-2.5-6.2-6.3 0-3.9 2.4-6.4 6.2-6.4zm0 10.2c2.3 0 3-1.9 3-3.8 0-2-0.7-3.9-3-3.9-2.2 0-2.9 1.9-2.9 3.9 0 1.9 0.7 3.8 2.9 3.8zm-8.5-11.8h-3.3v-2.7h3.3zm-3.3 1.9h3.3v12.1h-3.3zm-4.1 0h2.4v2.2h-2.4v6c0 1.1 0.3 1.4 1.4 1.4 0.4 0 0.7 0 1-0.1v2.6c-0.5 0.1-1.3 0.1-1.9 0.1-2.1 0-3.8-0.5-3.8-2.9v-7.1h-2v-2.2h2v-3.6h3.3zm-17.8 3.7c0.2-3.1 3-4.1 5.7-4.1 2.4 0 5.3 0.6 5.3 3.5v6.3c0 1.1 0.1 2.2 0.4 2.6h-3.3q-0.2-0.5-0.3-1.1c-1 1.1-2.6 1.5-4 1.5-2.3 0-4.2-1.2-4.2-3.6 0-2.8 2.1-3.4 4.2-3.7 2-0.3 3.9-0.3 3.9-1.6 0-1.4-1-1.7-2.2-1.7-1.2 0-2.1 0.6-2.2 1.9zm7.7 2.4c-0.6 0.5-1.7 0.5-2.8 0.7-1 0.2-1.9 0.6-1.9 1.8 0 1.3 0.9 1.6 2 1.6 2.6 0 2.7-2.1 2.7-2.8zm-21.4-6.2h3.2v1.7c0.9-1.4 2.3-2 3.7-2 3.6 0 4.4 1.9 4.4 4.9v7.5h-3.3v-6.8c0-2-0.6-3-2.1-3-1.8 0-2.6 1-2.6 3.5v6.3h-3.3zm-9.5 0h3.1v2.2h0.1c0.6-1.5 2.2-2.5 3.8-2.5 0.3 0 0.5 0 0.8 0.1v3.1c-0.3-0.1-0.8-0.2-1.2-0.2-2.5 0-3.3 1.8-3.3 3.9v5.5h-3.3zm-10.7 6.8c0.1 2.1 1.1 3.1 2.9 3.1 1.4 0 2.5-0.8 2.7-1.6h2.9c-0.9 2.9-2.9 4.1-5.7 4.1-3.8 0-6.1-2.6-6.1-6.4 0-3.6 2.5-6.3 6.1-6.3 4.1 0 6.1 3.4 5.9 7.1zm5.4-2.1c-0.3-1.7-1-2.5-2.6-2.5-2.1 0-2.8 1.6-2.8 2.5zm-12.2-4.7h2.5v2.2h-2.5v6c0 1.1 0.3 1.4 1.4 1.4q0.5 0 1.1-0.1v2.6c-0.6 0.1-1.3 0.1-2 0.1-2 0-3.8-0.5-3.8-2.9v-7.1h-2v-2.2h2v-3.6h3.3zm-18.1 0h3.2v1.6h0.1c0.8-1.3 2.3-2 3.7-2 3.5 0 4.4 2 4.4 5v7.4h-3.3v-6.8c0-2-0.6-3-2.2-3-1.8 0-2.5 1.1-2.5 3.5v6.3h-3.4zm-6.5-4.6h3.7v16.7h-3.7z"/>
			<path id="&lt;Compound Path&gt;" fill-rule="evenodd" class="s0" d="m712.5 44.4h3.2v1.7h0.1c0.8-1.4 2.3-2 3.7-2 3.5 0 4.4 2 4.4 5v7.4h-3.3v-6.8c0-2-0.6-3-2.1-3-1.9 0-2.6 1-2.6 3.5v6.3h-3.4zm-7.4-1.5h-2.3l2.3-3.3h3.6zm-6.1 5.2c0.2-3.1 3-4 5.7-4 2.4 0 5.3 0.5 5.3 3.4v6.3c0 1.1 0.1 2.2 0.4 2.7h-3.4q-0.2-0.6-0.2-1.2c-1.1 1.1-2.6 1.5-4.1 1.5-2.3 0-4.1-1.1-4.1-3.6 0-2.7 2.1-3.4 4.1-3.7 2.1-0.3 4-0.2 4-1.6 0-1.4-1-1.6-2.2-1.6-1.3 0-2.1 0.5-2.2 1.8zm7.7 2.5c-0.6 0.5-1.8 0.5-2.8 0.7-1 0.2-2 0.5-2 1.8 0 1.2 1 1.5 2.1 1.5 2.6 0 2.7-2.1 2.7-2.8zm-10.2-8h-3.3v-2.8h3.3zm-3.3 1.9h3.3v12.1h-3.3zm-4.1 0h2.4v2.2h-2.4v6c0 1.1 0.3 1.4 1.4 1.4q0.5 0 1-0.1v2.6c-0.6 0.1-1.3 0.1-1.9 0.1-2.1 0-3.8-0.4-3.8-2.8v-7.2h-2.1v-2.2h2.1v-3.6h3.3zm-14.2 8.1c0 1.5 1.2 2.1 2.5 2.1 1 0 2.2-0.4 2.2-1.6 0-1-1.4-1.3-3.8-1.8-1.9-0.5-3.8-1.1-3.8-3.3 0-3 2.7-3.8 5.3-3.8 2.6 0 5 0.8 5.3 3.8h-3.2c-0.1-1.3-1-1.6-2.2-1.6-0.8 0-1.9 0.1-1.9 1.1 0 1.2 1.9 1.4 3.8 1.8 1.9 0.4 3.8 1.1 3.8 3.4 0 3.2-2.7 4.2-5.5 4.2-2.8 0-5.5-1-5.7-4.3zm-16.1-4.4c0.1-3.1 2.9-4 5.6-4 2.5 0 5.4 0.5 5.4 3.4v6.3c0 1.1 0.1 2.2 0.4 2.7h-3.4q-0.2-0.6-0.2-1.2c-1.1 1.1-2.6 1.5-4.1 1.5-2.3 0-4.1-1.1-4.1-3.6 0-2.8 2-3.4 4.1-3.7 2-0.3 3.9-0.2 3.9-1.6 0-1.4-0.9-1.6-2.1-1.6-1.3 0-2.1 0.5-2.2 1.8zm7.7 2.5c-0.6 0.5-1.8 0.5-2.8 0.7-1 0.2-2 0.5-2 1.7 0 1.3 1 1.6 2.1 1.6 2.6 0 2.7-2.1 2.7-2.8zm-21.9-10.8h3.3v6.1h0.1c0.8-1.2 2.3-1.8 3.8-1.8 2.4 0 5 1.9 5 6.4 0 4.4-2.6 6.4-5 6.4-1.8 0-3.2-0.6-4-1.9v1.5h-3.2zm6.1 6.8c-2 0-2.9 1.9-2.9 3.9 0 2 0.9 3.9 2.9 3.9 1.9 0 2.8-1.9 2.8-3.9 0-2-0.9-3.9-2.8-3.9zm-16.8 4.7c0.1 2.1 1.1 3.1 3 3.1 1.3 0 2.4-0.9 2.6-1.6h2.9c-0.9 2.8-2.9 4.1-5.6 4.1-3.8 0-6.2-2.7-6.2-6.4 0-3.6 2.5-6.4 6.2-6.4 4.1 0 6.1 3.5 5.9 7.2zm5.4-2.1c-0.3-1.7-1.1-2.6-2.7-2.6-2.1 0-2.7 1.7-2.7 2.6zm-20.5 1.8c0 2.2 1.7 3.1 3.7 3.1 1.3 0 3.2-0.4 3.2-2.1 0-1.8-2.5-2.1-4.9-2.8-2.5-0.6-5-1.6-5-4.7 0-3.4 3.2-5.1 6.2-5.1 3.5 0 6.7 1.6 6.7 5.4h-3.5c-0.1-2-1.6-2.5-3.3-2.5-1.2 0-2.6 0.5-2.6 1.9 0 1.3 0.8 1.4 5 2.5 1.2 0.3 5 1.1 5 4.9 0 3-2.4 5.3-7 5.3-3.7 0-7.1-1.8-7.1-5.9zm-23.2-6.6h3.2v1.7c0.9-1.3 2.3-2 3.7-2 3.6 0 4.4 2 4.4 5v7.4h-3.3v-6.8c0-2-0.6-3-2.1-3-1.8 0-2.6 1-2.6 3.5v6.3h-3.3zm-13.6 3.8c0.2-3.2 3-4.1 5.7-4.1 2.4 0 5.3 0.6 5.3 3.4v6.3c0 1.1 0.1 2.2 0.4 2.7h-3.3q-0.2-0.5-0.3-1.1c-1 1.1-2.6 1.5-4 1.5-2.3 0-4.1-1.2-4.1-3.7 0-2.7 2-3.4 4.1-3.6 2-0.3 3.9-0.3 3.9-1.6 0-1.5-1-1.7-2.2-1.7-1.2 0-2 0.5-2.2 1.9zm7.7 2.4c-0.5 0.5-1.7 0.5-2.7 0.7-1.1 0.2-2 0.6-2 1.8 0 1.2 1 1.5 2 1.5 2.6 0 2.7-2 2.7-2.7zm-19.8 0.3c0 2.3 1.7 3.1 3.7 3.1 1.2 0 3.2-0.4 3.2-2.1 0-1.8-2.5-2.1-5-2.7-2.4-0.7-4.9-1.6-4.9-4.8 0-3.4 3.2-5 6.2-5 3.5 0 6.7 1.5 6.7 5.4h-3.6c-0.1-2.1-1.5-2.6-3.3-2.6-1.1 0-2.5 0.5-2.5 1.9 0 1.3 0.8 1.5 5 2.6 1.2 0.3 5 1 5 4.8 0 3.1-2.4 5.4-7 5.4-3.7 0-7.1-1.8-7.1-6zm-20.1 0.3c0.1 2.1 1.2 3.1 3 3.1 1.3 0 2.4-0.8 2.6-1.6h3c-1 2.9-3 4.1-5.7 4.1-3.8 0-6.2-2.6-6.2-6.4 0-3.6 2.5-6.3 6.2-6.3 4.1 0 6.1 3.4 5.9 7.1zm5.4-2.1c-0.3-1.7-1-2.5-2.7-2.5-2.1 0-2.7 1.6-2.7 2.5zm-13.8 5.8h-0.1c-0.7 1.3-2.1 1.9-3.7 1.9-3.6 0-5.4-3.1-5.4-6.5 0-3.2 1.8-6.2 5.4-6.2 1.4 0 2.8 0.6 3.6 1.8v-6.1h3.3v16.7h-3.1zm-2.9-8.4c-2.2 0-3 1.9-3 3.9 0 1.9 0.9 3.8 3 3.8 2.2 0 2.8-1.9 2.8-3.9 0-1.9-0.7-3.8-2.8-3.8zm-18.2-6.8h3.3v16.7h-3.3zm-13.7 8.4c0.2-3.2 3-4.1 5.7-4.1 2.4 0 5.3 0.5 5.3 3.4v6.3c0 1.1 0.1 2.2 0.4 2.7h-3.3q-0.2-0.5-0.3-1.1c-1 1.1-2.6 1.5-4 1.5-2.3 0-4.2-1.2-4.2-3.7 0-2.7 2.1-3.4 4.2-3.6 2-0.4 3.9-0.3 3.9-1.6 0-1.5-1-1.7-2.2-1.7-1.2 0-2 0.5-2.2 1.9zm7.7 2.4c-0.5 0.5-1.7 0.5-2.7 0.7-1.1 0.2-2 0.6-2 1.8 0 1.2 0.9 1.5 2 1.5 2.6 0 2.7-2 2.7-2.7zm-13 5.9h-3.7l-4.1-12.1h3.4l2.6 8.2 2.6-8.2h3.3zm-9.3-14h-3.3v-2.7h3.3zm-3.3 1.8h3.3v12.1h-3.3zm-4.2 0h2.5v2.3h-2.5v6c0 1.1 0.3 1.4 1.4 1.4q0.6 0 1.1-0.1v2.6c-0.6 0-1.3 0.1-2 0.1-2 0-3.8-0.5-3.8-2.9v-7.1h-2v-2.3h2v-3.6h3.3zm-14.2 8.2c0.1 1.4 1.3 2 2.6 2 0.9 0 2.2-0.4 2.2-1.5 0-1-1.4-1.4-3.8-1.9-1.9-0.4-3.8-1.1-3.8-3.2 0-3.1 2.6-3.9 5.2-3.9 2.7 0 5.1 0.9 5.4 3.8h-3.2c-0.1-1.2-1.1-1.6-2.3-1.6-0.7 0-1.8 0.2-1.8 1.1 0 1.2 1.8 1.4 3.7 1.8 2 0.5 3.9 1.2 3.9 3.4 0 3.2-2.8 4.2-5.5 4.2-2.8 0-5.6-1-5.7-4.2zm-13.3-1.3c0.1 2.1 1.1 3 3 3 1.3 0 2.4-0.8 2.6-1.5h2.9c-0.9 2.8-2.9 4-5.6 4-3.8 0-6.2-2.6-6.2-6.3 0-3.7 2.5-6.4 6.2-6.4 4.1 0 6.1 3.4 5.8 7.2zm5.4-2.1c-0.3-1.7-1-2.6-2.6-2.6-2.1 0-2.7 1.6-2.8 2.6zm-21.6-9.4h11.7v3.1h-8.1v3.9h7v2.8h-7v6.9h-3.6z"/>
			<path id="&lt;Compound Path&gt;" fill-rule="evenodd" class="s0" d="m656.4 20.8c0.2-3.1 2.9-4 5.7-4 2.4 0 5.3 0.5 5.3 3.4v6.3c0 1.1 0.1 2.2 0.4 2.7h-3.4q-0.2-0.6-0.2-1.2c-1.1 1.1-2.6 1.5-4.1 1.5-2.3 0-4.1-1.1-4.1-3.6 0-2.7 2-3.4 4.1-3.7 2-0.3 3.9-0.2 3.9-1.6 0-1.4-0.9-1.6-2.1-1.6-1.3 0-2.1 0.5-2.2 1.8zm7.7 2.5c-0.6 0.5-1.8 0.5-2.8 0.7-1 0.2-2 0.5-2 1.8 0 1.2 1 1.5 2.1 1.5 2.6 0 2.7-2.1 2.7-2.8zm-10.2-8h-3.3v-2.8h3.3zm-3.3 1.9h3.3v12.1h-3.3zm-5.8 10.6c-0.8 1.3-2.2 1.8-3.7 1.8-3.7 0-5.4-3.1-5.4-6.5 0-3.2 1.8-6.2 5.3-6.2 1.5 0 2.9 0.6 3.6 1.8h0.1v-6.1h3.3v16.7h-3.2zm-2.9-8.4c-2.2 0-2.9 1.9-2.9 3.9 0 1.9 0.9 3.9 2.9 3.9 2.2 0 2.9-2 2.9-3.9 0-2-0.7-3.9-2.9-3.9zm-11.7-6.8h3.4v16.7h-3.4zm-13.6 8.4c0.2-3.1 2.9-4.1 5.7-4.1 2.4 0 5.3 0.6 5.3 3.5v6.3c0 1.1 0.1 2.2 0.4 2.6h-3.4q-0.2-0.5-0.2-1.1c-1.1 1.1-2.6 1.5-4.1 1.5-2.3 0-4.1-1.2-4.1-3.6 0-2.8 2.1-3.5 4.1-3.7 2.1-0.3 4-0.3 4-1.6 0-1.4-1-1.7-2.2-1.7-1.3 0-2.1 0.6-2.2 1.9zm7.7 2.4c-0.6 0.5-1.8 0.5-2.8 0.7-1 0.2-2 0.6-2 1.8 0 1.2 1 1.6 2.1 1.6 2.6 0 2.7-2.1 2.7-2.8zm-28.7-6.2h3.2v1.6c0.9-1.2 2.1-1.9 3.7-1.9 1.5 0 2.9 0.5 3.5 2 0.7-1.1 2-2 3.7-2 2.6 0 4.4 1.2 4.4 4.3v8.1h-3.3v-6.9c0-1.6-0.1-2.9-2-2.9-1.9 0-2.3 1.5-2.3 3v6.8h-3.3v-6.8c0-1.4 0.1-3-2-3-0.7 0-2.2 0.4-2.2 2.8v7h-3.4zm-10.8 6.8c0.1 2.1 1.2 3.1 3 3.1 1.3 0 2.4-0.8 2.6-1.6h3c-1 2.9-3 4.1-5.7 4.1-3.8 0-6.2-2.6-6.2-6.4 0-3.6 2.5-6.3 6.2-6.3 4.1 0 6.1 3.4 5.9 7.1zm5.4-2.1c-0.3-1.7-1.1-2.5-2.7-2.5-2.1 0-2.7 1.6-2.7 2.5zm-22.1-4.7h3.2v1.7h0.1c0.8-1.4 2.3-2 3.7-2 3.5 0 4.4 1.9 4.4 4.9v7.5h-3.3v-6.9c0-1.9-0.6-2.9-2.2-2.9-1.8 0-2.5 1-2.5 3.4v6.4h-3.4zm-2.6-1.9h-3.3v-2.7h3.3zm-3.3 1.8h3.3v12.1h-3.3zm-16 9.2l9-10.7h-8.3v-3.1h13.2v2.9l-9 10.8h9.2v3h-14.1zm-19.3-5.4c0.2-3.1 2.9-4.1 5.7-4.1 2.4 0 5.3 0.6 5.3 3.5v6.3c0 1.1 0.1 2.2 0.4 2.6h-3.4q-0.2-0.5-0.2-1.1c-1.1 1.1-2.6 1.5-4.1 1.5-2.3 0-4.1-1.2-4.1-3.7 0-2.7 2.1-3.4 4.1-3.6 2-0.3 3.9-0.3 3.9-1.6 0-1.4-0.9-1.7-2.1-1.7-1.3 0-2.1 0.6-2.2 1.9zm7.7 2.4c-0.6 0.5-1.8 0.5-2.8 0.7-1 0.2-2 0.6-2 1.8 0 1.2 1 1.6 2.1 1.6 2.6 0 2.7-2.1 2.7-2.8zm-10.2-8.1h-3.3v-2.7h3.3zm-3.3 1.9h3.3v12.1h-3.3zm-4.1 0h2.4v2.2h-2.4v6c0 1.1 0.2 1.4 1.4 1.4 0.3 0 0.6-0.1 1-0.1v2.6c-0.6 0.1-1.3 0.1-1.9 0.1-2.1 0-3.9-0.5-3.9-2.9v-7.1h-2v-2.2h2v-3.7h3.4zm-14.2 8.2c0 1.4 1.2 2 2.5 2 1 0 2.2-0.3 2.2-1.5 0-1-1.4-1.4-3.8-1.9-1.9-0.4-3.8-1.1-3.8-3.2 0-3.1 2.6-3.9 5.2-3.9 2.7 0 5.1 0.9 5.4 3.9h-3.2c-0.1-1.3-1.1-1.7-2.2-1.7-0.8 0-1.9 0.2-1.9 1.1 0 1.2 1.9 1.4 3.8 1.8 1.9 0.5 3.8 1.2 3.8 3.4 0 3.2-2.8 4.2-5.5 4.2-2.8 0-5.6-1-5.7-4.2zm-11-8.5c3.8 0 6.3 2.5 6.3 6.4 0 3.8-2.5 6.3-6.3 6.3-3.8 0-6.2-2.5-6.2-6.3 0-3.9 2.4-6.4 6.2-6.4zm0 10.2c2.3 0 3-1.9 3-3.8 0-2-0.7-3.9-3-3.9-2.2 0-2.9 1.9-2.9 3.9 0 1.9 0.7 3.8 2.9 3.8zm-19.7-9.9h3.1v1.7h0.1c0.8-1.3 2.3-2 3.7-2 3.5 0 4.4 2 4.4 5v7.4h-3.3v-6.8c0-2-0.6-3-2.1-3-1.8 0-2.6 1-2.6 3.5v6.3h-3.3zm-8.5-0.3c3.8 0 6.3 2.5 6.3 6.4 0 3.8-2.5 6.3-6.3 6.3-3.8 0-6.2-2.5-6.2-6.3 0-3.9 2.4-6.4 6.2-6.4zm0 10.2c2.3 0 3-1.9 3-3.8 0-2-0.7-3.9-3-3.9-2.2 0-2.9 1.9-2.9 3.9 0 1.9 0.7 3.8 2.9 3.8zm-22.8-14.5h7.2c4.3 0 7.6 2.7 7.6 8.3 0 4.8-2.5 8.4-7.6 8.4h-7.2zm3.6 13.6h3.3c2.1 0 4.2-1.3 4.2-5 0-3.3-1.2-5.5-4.8-5.5h-2.7z"/>
			<path id="&lt;Path&gt;" class="s0" d="m121.1 91.3h3.3v-85.2h-3.3z"/>
			<path id="&lt;Compound Path&gt;" fill-rule="evenodd" class="s0" d="m98.1 56c0 1.7 0 3.2-0.2 4.8 0 0.9-0.6 1.7-1.4 2.1l-15.3 6.9v11.7c0 1.3-1.1 2.4-2.4 2.4h-50c-1.4 0-2.5-1.1-2.5-2.4v-11.8l-15.1-6.8q-0.4-0.2-0.8-0.5v-0.1c-0.5-0.4-0.7-1-0.7-1.6-0.2-1.6-0.3-3.1-0.3-4.7 0-24.4 19.9-44.3 44.4-44.3 24.4 0 44.3 19.9 44.3 44.3zm-21.8 16l-15.5 7h15.5zm-45.1 7.1h15.7l-15.7-7.1zm62-23c0-21.8-17.7-39.5-39.4-39.5-21.8 0-39.5 17.7-39.5 39.5 0 1 0.1 2 0.1 2.9l14.6 6.6 24.8 11.3 39.3-17.8c0.1-1 0.1-2 0.1-3z"/>
		</g>
	</g>
</svg>